<?xml version="1.0" standalone="no"?>
<!DOCTYPE svg PUBLIC "-//W3C//DTD SVG 1.1//EN" "http://www.w3.org/Graphics/SVG/1.1/DTD/svg11.dtd">
<svg xmlns="http://www.w3.org/2000/svg" version="1.1" viewBox="0.00 0.00 500.00 500.00" width="500" height="500">
<g stroke-width="2.00" fill="none" stroke-linecap="butt">
<path stroke="#806900" vector-effect="non-scaling-stroke" d="   M 353.03 190.73   C 395.76 179.74 417.05 129.33 384.46 95.47   C 370.45 80.92 350.93 74.60 330.58 76.03   A 0.77 0.77 0.0 0 0 329.86 76.87   Q 330.51 83.98 330.18 91.20   C 329.85 98.45 320.00 100.61 316.29 94.84   Q 315.08 92.97 314.27 87.34   C 310.48 61.26 291.28 39.82 266.26 32.62   C 224.23 20.52 183.16 47.56 177.85 90.87   C 176.51 101.84 162.13 100.62 162.40 89.75   Q 162.56 83.31 162.75 76.74   Q 162.77 76.26 162.29 76.22   Q 135.71 73.79 115.99 88.48   C 86.08 110.77 84.31 153.12 113.33 177.16   Q 127.78 189.13 146.47 192.49   C 149.41 193.01 151.97 194.94 152.62 197.68   Q 155.44 209.49 163.93 250.03   Q 164.03 250.50 164.51 250.50   L 327.99 250.50   A 0.76 0.76 0.0 0 0 328.73 249.90   Q 334.20 224.50 339.84 198.94   C 341.40 191.85 347.43 192.17 353.03 190.73"/>
<path stroke="#806900" vector-effect="non-scaling-stroke" d="   M 439.5848 287.2262   A 0.42 0.42 0.0 0 0 438.9908 287.2241   L 410.0120 316.0014   A 0.42 0.42 0.0 0 0 410.0099 316.5954   L 437.5752 344.3538   A 0.42 0.42 0.0 0 0 438.1692 344.3559   L 467.1480 315.5786   A 0.42 0.42 0.0 0 0 467.1501 314.9846   L 439.5848 287.2262"/>
<path stroke="#806900" vector-effect="non-scaling-stroke" d="   M 91.9577 320.3117   A 0.87 0.87 0.0 0 0 91.9577 319.0813   L 64.9887 292.1123   A 0.87 0.87 0.0 0 0 63.7583 292.1123   L 35.5023 320.3683   A 0.87 0.87 0.0 0 0 35.5023 321.5987   L 62.4713 348.5677   A 0.87 0.87 0.0 0 0 63.7017 348.5677   L 91.9577 320.3117"/>
<path stroke="#808080" vector-effect="non-scaling-stroke" d="   M 131.44 336.81   C 155.11 350.40 162.96 310.26 148.96 297.04   C 147.86 295.99 145.92 296.37 144.41 295.70   C 134.63 291.36 125.84 297.34 123.29 307.01   C 120.89 316.11 122.16 326.94 129.40 333.81   A 1.47 1.46 -73.1 0 1 129.84 334.64   Q 130.09 336.04 131.44 336.81"/>
<path stroke="#808080" vector-effect="non-scaling-stroke" d="   M 163.43 323.39   Q 163.26 323.05 162.93 322.90   A 0.73 0.72 -66.4 0 0 161.98 323.28   L 157.22 334.14   Q 156.99 334.67 157.24 335.19   L 158.33 337.49   Q 158.63 338.11 159.28 337.91   C 164.38 336.30 169.07 339.67 174.20 339.71   C 185.18 339.79 191.65 329.95 188.52 319.76   Q 187.36 315.99 184.05 315.27   Q 183.51 315.16 183.08 314.82   Q 178.61 311.35 172.90 310.65   Q 172.40 310.59 172.01 310.26   C 168.87 307.54 165.67 302.81 171.61 300.51   Q 172.13 300.31 172.65 300.47   Q 177.10 301.83 179.95 306.76   Q 180.92 308.45 182.39 307.90   Q 182.83 307.74 183.02 307.30   L 187.26 297.47   Q 187.42 297.10 187.16 296.79   Q 184.96 294.17 182.21 295.86   Q 181.69 296.18 181.12 295.97   C 176.24 294.24 169.54 293.14 165.04 295.62   C 158.82 299.06 157.81 307.75 161.51 313.46   Q 161.78 313.87 161.73 314.37   Q 161.45 317.34 164.12 318.69   C 169.64 321.47 176.79 321.05 180.48 326.03   Q 180.77 326.42 180.78 326.92   C 180.93 333.33 173.08 334.81 169.27 330.72   Q 167.11 328.40 166.50 325.21   A 0.81 0.80 4.0 0 0 165.97 324.61   L 164.13 323.98   Q 163.66 323.83 163.43 323.39"/>
<path stroke="#808080" vector-effect="non-scaling-stroke" d="   M 254.88 321.36   L 257.70 320.48   Q 258.24 320.31 258.42 320.84   Q 261.48 329.71 262.75 339.02   C 262.98 340.72 264.09 342.00 264.90 343.50   Q 265.17 343.99 265.63 343.67   Q 271.17 339.83 277.47 337.47   A 0.83 0.82 53.9 0 0 277.69 336.05   Q 269.16 329.20 265.78 318.82   A 1.41 1.41 0.0 0 1 266.44 317.16   Q 274.46 312.69 272.75 303.49   Q 271.93 299.05 268.54 298.49   Q 268.00 298.39 267.60 298.01   C 261.21 291.70 249.21 294.20 242.84 298.66   A 0.91 0.91 0.0 0 0 243.17 300.30   Q 245.15 300.74 245.04 302.69   C 244.81 306.73 245.04 310.90 244.97 314.99   Q 244.96 315.50 244.45 315.50   L 242.48 315.50   Q 241.90 315.50 241.70 316.04   Q 240.41 319.48 242.08 322.83   Q 242.28 323.22 242.71 323.13   L 244.50 322.76   A 0.50 0.49 -5.6 0 1 245.10 323.25   L 244.95 331.32   Q 244.95 331.83 244.59 332.19   L 241.94 334.92   A 0.69 0.68 38.8 0 0 242.06 335.97   Q 243.36 336.82 243.38 338.35   Q 243.39 339.00 244.05 339.00   L 257.80 339.00   A 1.01 1.00 -19.6 0 0 258.58 337.36   L 254.46 332.33   A 0.72 0.71 -65.6 0 1 254.31 331.92   L 254.22 322.28   A 0.96 0.95 -9.6 0 1 254.88 321.36"/>
<path stroke="#808080" vector-effect="non-scaling-stroke" d="   M 347.94 336.56   C 358.75 344.01 369.53 336.02 371.91 324.93   C 373.95 315.48 373.27 303.16 365.02 296.54   Q 364.64 296.24 364.16 296.27   C 361.65 296.40 359.65 294.84 357.73 294.56   C 336.73 291.48 334.51 322.91 346.01 333.62   Q 346.37 333.95 346.43 334.43   Q 346.61 335.65 347.94 336.56"/>
<path stroke="#808080" vector-effect="non-scaling-stroke" d="   M 378.54 314.42   C 377.44 319.08 388.15 321.48 391.29 321.91   C 395.10 322.43 401.23 328.32 395.08 331.88   C 388.99 335.41 384.82 330.61 383.06 325.06   Q 382.91 324.59 382.43 324.52   Q 380.91 324.29 379.97 323.09   A 0.73 0.73 0.0 0 0 378.72 323.25   L 374.04 334.25   Q 373.82 334.77 374.06 335.28   L 375.16 337.57   A 0.71 0.71 0.0 0 0 376.00 337.95   C 381.42 336.37 385.99 339.68 391.33 339.74   C 400.68 339.84 406.98 331.77 406.09 322.72   Q 405.66 318.47 402.91 316.33   Q 402.03 315.64 397.14 313.03   Q 393.72 311.20 389.74 310.66   Q 389.26 310.59 388.87 310.29   C 386.30 308.28 383.24 303.54 386.64 301.30   C 391.08 298.37 395.14 304.35 397.26 307.20   A 1.58 1.58 0.0 0 0 399.98 306.88   L 403.98 297.68   Q 404.19 297.20 403.86 296.79   Q 401.82 294.19 399.04 295.84   A 1.36 1.32 -50.4 0 1 397.94 295.96   C 392.83 294.22 386.29 293.03 381.60 295.87   C 376.32 299.07 373.97 308.02 378.34 313.52   Q 378.65 313.92 378.54 314.42"/>
<path stroke="#808080" vector-effect="non-scaling-stroke" d="   M 316.18 318.22   L 311.22 301.02   Q 311.05 300.43 311.52 300.04   L 313.99 297.91   A 0.67 0.66 46.9 0 0 314.02 296.93   C 312.77 295.70 311.63 294.73 309.71 294.74   Q 303.81 294.77 298.32 294.74   A 1.26 1.25 -26.2 0 0 297.55 296.99   C 299.36 298.36 300.13 299.44 300.19 301.86   Q 300.51 314.82 299.95 327.77   C 299.81 330.94 298.54 333.00 295.84 334.36   Q 295.38 334.59 295.33 335.10   L 295.20 336.34   Q 295.12 337.22 294.56 336.54   L 291.43 332.68   A 1.11 1.07 -65.7 0 1 291.18 331.98   L 290.93 301.38   Q 290.93 300.82 291.32 300.41   L 293.73 297.84   A 0.67 0.66 43.5 0 0 293.70 296.90   L 291.74 295.11   Q 291.35 294.75 290.82 294.75   L 278.99 294.75   A 0.82 0.82 0.0 0 0 278.39 296.12   L 281.40 299.38   Q 281.75 299.76 281.75 300.27   L 281.75 331.47   A 1.14 1.12 -20.9 0 1 281.36 332.32   L 278.66 334.66   Q 277.72 335.47 278.76 336.16   Q 279.78 336.84 279.50 338.12   A 0.73 0.72 -83.8 0 0 280.20 339.00   L 309.51 339.00   A 0.94 0.94 0.0 0 0 310.31 337.57   C 308.79 335.06 306.69 332.76 306.49 329.68   Q 306.09 323.67 306.11 319.18   Q 306.13 315.88 307.08 319.04   L 312.68 337.69   A 2.43 2.43 0.0 0 0 317.32 337.73   L 323.83 317.46   A 0.15 0.15 0.0 0 1 324.13 317.50   L 324.10 331.54   A 0.66 0.63 70.4 0 1 323.88 332.03   L 320.99 334.59   Q 320.62 334.92 320.83 335.38   L 322.29 338.57   Q 322.49 339.00 322.96 339.00   L 336.95 339.00   A 0.96 0.96 0.0 0 0 337.63 337.37   C 335.16 334.81 333.18 332.32 333.21 328.45   Q 333.30 315.06 333.23 301.62   A 1.31 1.29 -21.1 0 1 333.67 300.65   L 336.06 298.57   A 0.66 0.66 0.0 0 0 336.13 297.64   L 333.75 294.91   Q 333.40 294.51 332.87 294.52   L 320.41 294.83   A 0.79 0.79 0.0 0 0 319.80 296.10   L 322.32 299.38   Q 322.64 299.79 322.48 300.29   L 316.92 318.23   Q 316.53 319.47 316.18 318.22"/>
<path stroke="#808080" vector-effect="non-scaling-stroke" d="   M 92.41 339.00   L 119.72 339.00   A 3.01 3.01 0.0 0 0 122.40 334.61   L 117.93 325.89   Q 117.74 325.51 117.32 325.47   Q 115.44 325.27 114.32 323.71   A 0.46 0.46 0.0 0 0 113.51 323.85   C 111.90 329.27 110.34 333.50 103.52 332.38   A 0.60 0.60 0.0 0 1 103.01 331.79   Q 102.98 317.19 103.01 302.59   C 103.02 300.49 103.98 299.29 105.63 298.24   A 0.62 0.62 0.0 0 0 105.81 297.36   L 104.38 295.28   Q 104.01 294.75 103.36 294.75   L 90.97 294.75   A 0.66 0.65 -19.6 0 0 90.46 295.82   L 93.60 299.63   Q 94.00 300.11 94.00 300.73   L 94.00 331.25   A 1.02 1.01 69.1 0 1 93.67 332.00   L 90.84 334.66   Q 90.46 335.01 90.63 335.50   L 91.66 338.46   A 0.81 0.79 80.1 0 0 92.41 339.00"/>
<path stroke="#808080" vector-effect="non-scaling-stroke" d="   M 221.34 320.43   C 228.44 320.86 236.04 319.89 238.57 312.83   Q 241.08 305.84 236.95 299.54   C 236.45 298.76 234.36 298.45 233.34 297.78   C 226.77 293.41 216.90 294.70 209.46 294.77   A 1.09 1.08 -20.3 0 0 208.64 296.55   L 210.80 299.12   Q 211.21 299.62 211.22 300.27   L 211.32 313.33   Q 211.32 313.86 210.80 313.95   Q 207.31 314.50 205.62 317.67   Q 205.36 318.15 205.70 318.59   L 207.40 320.79   Q 207.74 321.22 208.27 321.07   L 210.59 320.42   Q 211.25 320.23 211.25 320.91   L 211.25 331.18   Q 211.25 331.64 210.92 331.97   L 207.93 335.05   A 0.64 0.64 0.0 0 0 208.14 336.09   Q 209.54 336.69 209.49 338.25   Q 209.47 339.00 210.22 339.00   L 223.65 339.00   A 1.04 1.04 0.0 0 0 224.48 337.33   L 221.05 332.73   A 1.56 1.55 -63.2 0 1 220.75 331.81   L 220.75 320.99   Q 220.75 320.40 221.34 320.43"/>
<path stroke="#806900" vector-effect="non-scaling-stroke" d="   M 275.58 107.48   C 274.19 91.93 261.94 80.88 247.36 75.02   Q 246.52 74.69 247.05 75.42   C 256.21 87.80 261.27 101.21 253.13 115.85   C 247.52 125.93 239.53 134.85 232.28 143.77   C 208.12 173.49 208.33 208.36 245.84 227.52   A 0.26 0.26 0.0 0 0 246.18 227.16   C 237.88 212.48 232.47 195.95 239.84 179.54   C 250.30 156.27 278.04 135.01 275.58 107.48"/>
<path stroke="#806900" vector-effect="non-scaling-stroke" d="   M 225.11 123.09   C 229.44 107.65 220.57 96.47 206.89 90.71   A 0.25 0.24 81.9 0 0 206.61 91.09   C 227.00 116.93 195.13 132.01 186.66 152.92   C 178.76 172.44 186.64 187.33 204.06 197.02   Q 204.82 197.45 204.43 196.66   C 195.02 177.59 196.16 166.63 209.20 149.70   C 215.39 141.66 222.41 132.72 225.11 123.09"/>
<path stroke="#806900" vector-effect="non-scaling-stroke" d="   M 283.77 117.85   C 301.90 140.92 275.96 155.79 265.05 172.55   C 252.33 192.11 256.63 212.23 277.36 223.41   Q 277.74 223.62 277.56 223.22   C 270.85 208.00 269.16 196.81 279.31 182.56   C 287.24 171.43 305.22 154.98 302.24 137.86   C 300.56 128.22 292.75 121.23 284.18 117.32   A 0.35 0.34 83.0 0 0 283.77 117.85"/>
<path stroke="#808080" vector-effect="non-scaling-stroke" d="   M 139.08 332.39   C 147.79 331.80 145.79 309.49 144.64 304.36   A 1.36 1.34 13.8 0 0 144.17 303.60   C 129.09 291.70 129.67 333.04 139.08 332.39"/>
<path stroke="#808080" vector-effect="non-scaling-stroke" d="   M 263.32 306.75   C 263.90 302.46 258.28 300.67 255.12 301.02   Q 254.50 301.09 254.50 301.71   L 254.50 313.76   Q 254.50 314.35 255.06 314.16   C 258.65 312.93 262.75 311.02 263.32 306.75"/>
<path stroke="#808080" vector-effect="non-scaling-stroke" d="   M 355.83 332.36   C 364.72 331.55 362.55 309.30 361.34 303.97   Q 361.23 303.48 360.78 303.26   C 357.59 301.72 354.80 300.26 352.16 303.18   C 348.43 307.29 347.49 333.13 355.83 332.36"/>
<path stroke="#808080" vector-effect="non-scaling-stroke" d="   M 220.74 302.44   L 220.76 313.06   A 0.25 0.25 0.0 0 0 221.01 313.31   L 222.30 313.30   A 7.20 5.16 -0.1 0 0 229.49 308.13   L 229.49 307.33   A 7.20 5.16 -0.1 0 0 222.28 302.18   L 220.99 302.19   A 0.25 0.25 0.0 0 0 220.74 302.44"/>
</g>
<path fill="#000000" d="   M 500.00 313.02   L 500.00 315.71   L 447.30 354.28   A 1.68 1.67 72.0 0 0 446.62 355.63   L 446.80 383.22   A 1.02 1.02 0.0 0 1 445.78 384.25   L 55.04 384.25   A 1.45 1.44 -89.8 0 1 53.60 382.79   L 53.81 359.18   Q 53.81 358.62 53.41 358.25   L 9.83 318.18   A 0.88 0.87 46.0 0 1 9.85 316.87   L 52.71 280.75   A 2.94 2.91 -20.3 0 0 53.75 278.52   L 53.75 251.73   A 1.02 1.01 -89.7 0 1 54.77 250.71   L 147.46 251.07   A 1.40 1.39 -6.2 0 0 148.83 249.37   Q 144.10 228.62 140.00 208.50   C 139.65 206.75 139.13 206.06 137.24 205.78   C 104.57 200.87 78.69 177.79 72.54 145.16   C 67.59 118.87 79.22 92.30 100.13 76.29   Q 126.20 56.34 160.76 60.36   Q 163.40 60.67 165.52 61.42   Q 166.79 61.87 167.30 60.63   C 177.19 36.70 195.97 19.44 220.79 11.91   Q 224.61 10.75 229.86 10.75   Q 248.55 10.74 267.25 10.76   Q 268.98 10.76 272.74 12.01   Q 310.08 24.44 325.81 61.09   Q 325.98 61.49 326.41 61.41   C 354.58 55.97 382.68 63.93 402.06 84.80   C 419.61 103.69 426.38 131.18 417.28 155.94   C 406.78 184.48 384.29 201.38 354.26 206.00   A 1.32 1.32 0.0 0 0 353.17 207.03   L 344.14 249.31   A 1.42 1.41 -84.2 0 0 345.53 251.02   L 444.77 250.67   A 1.84 1.84 0.0 0 1 446.62 252.52   L 446.51 275.27   A 3.55 3.53 -73.1 0 0 448.07 278.21   L 500.00 313.02   Z   M 353.03 190.73   C 395.76 179.74 417.05 129.33 384.46 95.47   C 370.45 80.92 350.93 74.60 330.58 76.03   A 0.77 0.77 0.0 0 0 329.86 76.87   Q 330.51 83.98 330.18 91.20   C 329.85 98.45 320.00 100.61 316.29 94.84   Q 315.08 92.97 314.27 87.34   C 310.48 61.26 291.28 39.82 266.26 32.62   C 224.23 20.52 183.16 47.56 177.85 90.87   C 176.51 101.84 162.13 100.62 162.40 89.75   Q 162.56 83.31 162.75 76.74   Q 162.77 76.26 162.29 76.22   Q 135.71 73.79 115.99 88.48   C 86.08 110.77 84.31 153.12 113.33 177.16   Q 127.78 189.13 146.47 192.49   C 149.41 193.01 151.97 194.94 152.62 197.68   Q 155.44 209.49 163.93 250.03   Q 164.03 250.50 164.51 250.50   L 327.99 250.50   A 0.76 0.76 0.0 0 0 328.73 249.90   Q 334.20 224.50 339.84 198.94   C 341.40 191.85 347.43 192.17 353.03 190.73   Z   M 439.5848 287.2262   A 0.42 0.42 0.0 0 0 438.9908 287.2241   L 410.0120 316.0014   A 0.42 0.42 0.0 0 0 410.0099 316.5954   L 437.5752 344.3538   A 0.42 0.42 0.0 0 0 438.1692 344.3559   L 467.1480 315.5786   A 0.42 0.42 0.0 0 0 467.1501 314.9846   L 439.5848 287.2262   Z   M 91.9577 320.3117   A 0.87 0.87 0.0 0 0 91.9577 319.0813   L 64.9887 292.1123   A 0.87 0.87 0.0 0 0 63.7583 292.1123   L 35.5023 320.3683   A 0.87 0.87 0.0 0 0 35.5023 321.5987   L 62.4713 348.5677   A 0.87 0.87 0.0 0 0 63.7017 348.5677   L 91.9577 320.3117   Z   M 131.44 336.81   C 155.11 350.40 162.96 310.26 148.96 297.04   C 147.86 295.99 145.92 296.37 144.41 295.70   C 134.63 291.36 125.84 297.34 123.29 307.01   C 120.89 316.11 122.16 326.94 129.40 333.81   A 1.47 1.46 -73.1 0 1 129.84 334.64   Q 130.09 336.04 131.44 336.81   Z   M 163.43 323.39   Q 163.26 323.05 162.93 322.90   A 0.73 0.72 -66.4 0 0 161.98 323.28   L 157.22 334.14   Q 156.99 334.67 157.24 335.19   L 158.33 337.49   Q 158.63 338.11 159.28 337.91   C 164.38 336.30 169.07 339.67 174.20 339.71   C 185.18 339.79 191.65 329.95 188.52 319.76   Q 187.36 315.99 184.05 315.27   Q 183.51 315.16 183.08 314.82   Q 178.61 311.35 172.90 310.65   Q 172.40 310.59 172.01 310.26   C 168.87 307.54 165.67 302.81 171.61 300.51   Q 172.13 300.31 172.65 300.47   Q 177.10 301.83 179.95 306.76   Q 180.92 308.45 182.39 307.90   Q 182.83 307.74 183.02 307.30   L 187.26 297.47   Q 187.42 297.10 187.16 296.79   Q 184.96 294.17 182.21 295.86   Q 181.69 296.18 181.12 295.97   C 176.24 294.24 169.54 293.14 165.04 295.62   C 158.82 299.06 157.81 307.75 161.51 313.46   Q 161.78 313.87 161.73 314.37   Q 161.45 317.34 164.12 318.69   C 169.64 321.47 176.79 321.05 180.48 326.03   Q 180.77 326.42 180.78 326.92   C 180.93 333.33 173.08 334.81 169.27 330.72   Q 167.11 328.40 166.50 325.21   A 0.81 0.80 4.0 0 0 165.97 324.61   L 164.13 323.98   Q 163.66 323.83 163.43 323.39   Z   M 254.88 321.36   L 257.70 320.48   Q 258.24 320.31 258.42 320.84   Q 261.48 329.71 262.75 339.02   C 262.98 340.72 264.09 342.00 264.90 343.50   Q 265.17 343.99 265.63 343.67   Q 271.17 339.83 277.47 337.47   A 0.83 0.82 53.9 0 0 277.69 336.05   Q 269.16 329.20 265.78 318.82   A 1.41 1.41 0.0 0 1 266.44 317.16   Q 274.46 312.69 272.75 303.49   Q 271.93 299.05 268.54 298.49   Q 268.00 298.39 267.60 298.01   C 261.21 291.70 249.21 294.20 242.84 298.66   A 0.91 0.91 0.0 0 0 243.17 300.30   Q 245.15 300.74 245.04 302.69   C 244.81 306.73 245.04 310.90 244.97 314.99   Q 244.96 315.50 244.45 315.50   L 242.48 315.50   Q 241.90 315.50 241.70 316.04   Q 240.41 319.48 242.08 322.83   Q 242.28 323.22 242.71 323.13   L 244.50 322.76   A 0.50 0.49 -5.6 0 1 245.10 323.25   L 244.95 331.32   Q 244.95 331.83 244.59 332.19   L 241.94 334.92   A 0.69 0.68 38.8 0 0 242.06 335.97   Q 243.36 336.82 243.38 338.35   Q 243.39 339.00 244.05 339.00   L 257.80 339.00   A 1.01 1.00 -19.6 0 0 258.58 337.36   L 254.46 332.33   A 0.72 0.71 -65.6 0 1 254.31 331.92   L 254.22 322.28   A 0.96 0.95 -9.6 0 1 254.88 321.36   Z   M 347.94 336.56   C 358.75 344.01 369.53 336.02 371.91 324.93   C 373.95 315.48 373.27 303.16 365.02 296.54   Q 364.64 296.24 364.16 296.27   C 361.65 296.40 359.65 294.84 357.73 294.56   C 336.73 291.48 334.51 322.91 346.01 333.62   Q 346.37 333.95 346.43 334.43   Q 346.61 335.65 347.94 336.56   Z   M 378.54 314.42   C 377.44 319.08 388.15 321.48 391.29 321.91   C 395.10 322.43 401.23 328.32 395.08 331.88   C 388.99 335.41 384.82 330.61 383.06 325.06   Q 382.91 324.59 382.43 324.52   Q 380.91 324.29 379.97 323.09   A 0.73 0.73 0.0 0 0 378.72 323.25   L 374.04 334.25   Q 373.82 334.77 374.06 335.28   L 375.16 337.57   A 0.71 0.71 0.0 0 0 376.00 337.95   C 381.42 336.37 385.99 339.68 391.33 339.74   C 400.68 339.84 406.98 331.77 406.09 322.72   Q 405.66 318.47 402.91 316.33   Q 402.03 315.64 397.14 313.03   Q 393.72 311.20 389.74 310.66   Q 389.26 310.59 388.87 310.29   C 386.30 308.28 383.24 303.54 386.64 301.30   C 391.08 298.37 395.14 304.35 397.26 307.20   A 1.58 1.58 0.0 0 0 399.98 306.88   L 403.98 297.68   Q 404.19 297.20 403.86 296.79   Q 401.82 294.19 399.04 295.84   A 1.36 1.32 -50.4 0 1 397.94 295.96   C 392.83 294.22 386.29 293.03 381.60 295.87   C 376.32 299.07 373.97 308.02 378.34 313.52   Q 378.65 313.92 378.54 314.42   Z   M 316.18 318.22   L 311.22 301.02   Q 311.05 300.43 311.52 300.04   L 313.99 297.91   A 0.67 0.66 46.9 0 0 314.02 296.93   C 312.77 295.70 311.63 294.73 309.71 294.74   Q 303.81 294.77 298.32 294.74   A 1.26 1.25 -26.2 0 0 297.55 296.99   C 299.36 298.36 300.13 299.44 300.19 301.86   Q 300.51 314.82 299.95 327.77   C 299.81 330.94 298.54 333.00 295.84 334.36   Q 295.38 334.59 295.33 335.10   L 295.20 336.34   Q 295.12 337.22 294.56 336.54   L 291.43 332.68   A 1.11 1.07 -65.7 0 1 291.18 331.98   L 290.93 301.38   Q 290.93 300.82 291.32 300.41   L 293.73 297.84   A 0.67 0.66 43.5 0 0 293.70 296.90   L 291.74 295.11   Q 291.35 294.75 290.82 294.75   L 278.99 294.75   A 0.82 0.82 0.0 0 0 278.39 296.12   L 281.40 299.38   Q 281.75 299.76 281.75 300.27   L 281.75 331.47   A 1.14 1.12 -20.9 0 1 281.36 332.32   L 278.66 334.66   Q 277.72 335.47 278.76 336.16   Q 279.78 336.84 279.50 338.12   A 0.73 0.72 -83.8 0 0 280.20 339.00   L 309.51 339.00   A 0.94 0.94 0.0 0 0 310.31 337.57   C 308.79 335.06 306.69 332.76 306.49 329.68   Q 306.09 323.67 306.11 319.18   Q 306.13 315.88 307.08 319.04   L 312.68 337.69   A 2.43 2.43 0.0 0 0 317.32 337.73   L 323.83 317.46   A 0.15 0.15 0.0 0 1 324.13 317.50   L 324.10 331.54   A 0.66 0.63 70.4 0 1 323.88 332.03   L 320.99 334.59   Q 320.62 334.92 320.83 335.38   L 322.29 338.57   Q 322.49 339.00 322.96 339.00   L 336.95 339.00   A 0.96 0.96 0.0 0 0 337.63 337.37   C 335.16 334.81 333.18 332.32 333.21 328.45   Q 333.30 315.06 333.23 301.62   A 1.31 1.29 -21.1 0 1 333.67 300.65   L 336.06 298.57   A 0.66 0.66 0.0 0 0 336.13 297.64   L 333.75 294.91   Q 333.40 294.51 332.87 294.52   L 320.41 294.83   A 0.79 0.79 0.0 0 0 319.80 296.10   L 322.32 299.38   Q 322.64 299.79 322.48 300.29   L 316.92 318.23   Q 316.53 319.47 316.18 318.22   Z   M 92.41 339.00   L 119.72 339.00   A 3.01 3.01 0.0 0 0 122.40 334.61   L 117.93 325.89   Q 117.74 325.51 117.32 325.47   Q 115.44 325.27 114.32 323.71   A 0.46 0.46 0.0 0 0 113.51 323.85   C 111.90 329.27 110.34 333.50 103.52 332.38   A 0.60 0.60 0.0 0 1 103.01 331.79   Q 102.98 317.19 103.01 302.59   C 103.02 300.49 103.98 299.29 105.63 298.24   A 0.62 0.62 0.0 0 0 105.81 297.36   L 104.38 295.28   Q 104.01 294.75 103.36 294.75   L 90.97 294.75   A 0.66 0.65 -19.6 0 0 90.46 295.82   L 93.60 299.63   Q 94.00 300.11 94.00 300.73   L 94.00 331.25   A 1.02 1.01 69.1 0 1 93.67 332.00   L 90.84 334.66   Q 90.46 335.01 90.63 335.50   L 91.66 338.46   A 0.81 0.79 80.1 0 0 92.41 339.00   Z   M 221.34 320.43   C 228.44 320.86 236.04 319.89 238.57 312.83   Q 241.08 305.84 236.95 299.54   C 236.45 298.76 234.36 298.45 233.34 297.78   C 226.77 293.41 216.90 294.70 209.46 294.77   A 1.09 1.08 -20.3 0 0 208.64 296.55   L 210.80 299.12   Q 211.21 299.62 211.22 300.27   L 211.32 313.33   Q 211.32 313.86 210.80 313.95   Q 207.31 314.50 205.62 317.67   Q 205.36 318.15 205.70 318.59   L 207.40 320.79   Q 207.74 321.22 208.27 321.07   L 210.59 320.42   Q 211.25 320.23 211.25 320.91   L 211.25 331.18   Q 211.25 331.64 210.92 331.97   L 207.93 335.05   A 0.64 0.64 0.0 0 0 208.14 336.09   Q 209.54 336.69 209.49 338.25   Q 209.47 339.00 210.22 339.00   L 223.65 339.00   A 1.04 1.04 0.0 0 0 224.48 337.33   L 221.05 332.73   A 1.56 1.55 -63.2 0 1 220.75 331.81   L 220.75 320.99   Q 220.75 320.40 221.34 320.43   Z"/>
<path fill="#ffd200" d="   M 384.46 95.47   C 417.05 129.33 395.76 179.74 353.03 190.73   C 347.43 192.17 341.40 191.85 339.84 198.94   Q 334.20 224.50 328.73 249.90   A 0.76 0.76 0.0 0 1 327.99 250.50   L 164.51 250.50   Q 164.03 250.50 163.93 250.03   Q 155.44 209.49 152.62 197.68   C 151.97 194.94 149.41 193.01 146.47 192.49   Q 127.78 189.13 113.33 177.16   C 84.31 153.12 86.08 110.77 115.99 88.48   Q 135.71 73.79 162.29 76.22   Q 162.77 76.26 162.75 76.74   Q 162.56 83.31 162.40 89.75   C 162.13 100.62 176.51 101.84 177.85 90.87   C 183.16 47.56 224.23 20.52 266.26 32.62   C 291.28 39.82 310.48 61.26 314.27 87.34   Q 315.08 92.97 316.29 94.84   C 320.00 100.61 329.85 98.45 330.18 91.20   Q 330.51 83.98 329.86 76.87   A 0.77 0.77 0.0 0 1 330.58 76.03   C 350.93 74.60 370.45 80.92 384.46 95.47   Z   M 275.58 107.48   C 274.19 91.93 261.94 80.88 247.36 75.02   Q 246.52 74.69 247.05 75.42   C 256.21 87.80 261.27 101.21 253.13 115.85   C 247.52 125.93 239.53 134.85 232.28 143.77   C 208.12 173.49 208.33 208.36 245.84 227.52   A 0.26 0.26 0.0 0 0 246.18 227.16   C 237.88 212.48 232.47 195.95 239.84 179.54   C 250.30 156.27 278.04 135.01 275.58 107.48   Z   M 225.11 123.09   C 229.44 107.65 220.57 96.47 206.89 90.71   A 0.25 0.24 81.9 0 0 206.61 91.09   C 227.00 116.93 195.13 132.01 186.66 152.92   C 178.76 172.44 186.64 187.33 204.06 197.02   Q 204.82 197.45 204.43 196.66   C 195.02 177.59 196.16 166.63 209.20 149.70   C 215.39 141.66 222.41 132.72 225.11 123.09   Z   M 283.77 117.85   C 301.90 140.92 275.96 155.79 265.05 172.55   C 252.33 192.11 256.63 212.23 277.36 223.41   Q 277.74 223.62 277.56 223.22   C 270.85 208.00 269.16 196.81 279.31 182.56   C 287.24 171.43 305.22 154.98 302.24 137.86   C 300.56 128.22 292.75 121.23 284.18 117.32   A 0.35 0.34 83.0 0 0 283.77 117.85   Z"/>
<path fill="#000000" d="   M 247.36 75.02   C 261.94 80.88 274.19 91.93 275.58 107.48   C 278.04 135.01 250.30 156.27 239.84 179.54   C 232.47 195.95 237.88 212.48 246.18 227.16   A 0.26 0.26 0.0 0 1 245.84 227.52   C 208.33 208.36 208.12 173.49 232.28 143.77   C 239.53 134.85 247.52 125.93 253.13 115.85   C 261.27 101.21 256.21 87.80 247.05 75.42   Q 246.52 74.69 247.36 75.02   Z"/>
<path fill="#000000" d="   M 206.89 90.71   C 220.57 96.47 229.44 107.65 225.11 123.09   C 222.41 132.72 215.39 141.66 209.20 149.70   C 196.16 166.63 195.02 177.59 204.43 196.66   Q 204.82 197.45 204.06 197.02   C 186.64 187.33 178.76 172.44 186.66 152.92   C 195.13 132.01 227.00 116.93 206.61 91.09   A 0.25 0.24 81.9 0 1 206.89 90.71   Z"/>
<path fill="#000000" d="   M 265.05 172.55   C 275.96 155.79 301.90 140.92 283.77 117.85   A 0.35 0.34 83.0 0 1 284.18 117.32   C 292.75 121.23 300.56 128.22 302.24 137.86   C 305.22 154.98 287.24 171.43 279.31 182.56   C 269.16 196.81 270.85 208.00 277.56 223.22   Q 277.74 223.62 277.36 223.41   C 256.63 212.23 252.33 192.11 265.05 172.55   Z"/>
<rect fill="#ffd200" x="-20.84" y="-19.98" transform="translate(438.58,315.79) rotate(-44.8)" width="41.68" height="39.96" rx="0.42"/>
<rect fill="#ffd200" x="-19.94" y="-20.85" transform="translate(63.73,320.34) rotate(45.0)" width="39.88" height="41.70" rx="0.87"/>
<path fill="#ffffff" d="   M 131.44 336.81   Q 130.09 336.04 129.84 334.64   A 1.47 1.46 -73.1 0 0 129.40 333.81   C 122.16 326.94 120.89 316.11 123.29 307.01   C 125.84 297.34 134.63 291.36 144.41 295.70   C 145.92 296.37 147.86 295.99 148.96 297.04   C 162.96 310.26 155.11 350.40 131.44 336.81   Z   M 139.08 332.39   C 147.79 331.80 145.79 309.49 144.64 304.36   A 1.36 1.34 13.8 0 0 144.17 303.60   C 129.09 291.70 129.67 333.04 139.08 332.39   Z"/>
<path fill="#ffffff" d="   M 164.13 323.98   L 165.97 324.61   A 0.81 0.80 4.0 0 1 166.50 325.21   Q 167.11 328.40 169.27 330.72   C 173.08 334.81 180.93 333.33 180.78 326.92   Q 180.77 326.42 180.48 326.03   C 176.79 321.05 169.64 321.47 164.12 318.69   Q 161.45 317.34 161.73 314.37   Q 161.78 313.87 161.51 313.46   C 157.81 307.75 158.82 299.06 165.04 295.62   C 169.54 293.14 176.24 294.24 181.12 295.97   Q 181.69 296.18 182.21 295.86   Q 184.96 294.17 187.16 296.79   Q 187.42 297.10 187.26 297.47   L 183.02 307.30   Q 182.83 307.74 182.39 307.90   Q 180.92 308.45 179.95 306.76   Q 177.10 301.83 172.65 300.47   Q 172.13 300.31 171.61 300.51   C 165.67 302.81 168.87 307.54 172.01 310.26   Q 172.40 310.59 172.90 310.65   Q 178.61 311.35 183.08 314.82   Q 183.51 315.16 184.05 315.27   Q 187.36 315.99 188.52 319.76   C 191.65 329.95 185.18 339.79 174.20 339.71   C 169.07 339.67 164.38 336.30 159.28 337.91   Q 158.63 338.11 158.33 337.49   L 157.24 335.19   Q 156.99 334.67 157.22 334.14   L 161.98 323.28   A 0.73 0.72 -66.4 0 1 162.93 322.90   Q 163.26 323.05 163.43 323.39   Q 163.66 323.83 164.13 323.98   Z"/>
<path fill="#ffffff" d="   M 254.22 322.28   L 254.31 331.92   A 0.72 0.71 -65.6 0 0 254.46 332.33   L 258.58 337.36   A 1.01 1.00 -19.6 0 1 257.80 339.00   L 244.05 339.00   Q 243.39 339.00 243.38 338.35   Q 243.36 336.82 242.06 335.97   A 0.69 0.68 38.8 0 1 241.94 334.92   L 244.59 332.19   Q 244.95 331.83 244.95 331.32   L 245.10 323.25   A 0.50 0.49 -5.6 0 0 244.50 322.76   L 242.71 323.13   Q 242.28 323.22 242.08 322.83   Q 240.41 319.48 241.70 316.04   Q 241.90 315.50 242.48 315.50   L 244.45 315.50   Q 244.96 315.50 244.97 314.99   C 245.04 310.90 244.81 306.73 245.04 302.69   Q 245.15 300.74 243.17 300.30   A 0.91 0.91 0.0 0 1 242.84 298.66   C 249.21 294.20 261.21 291.70 267.60 298.01   Q 268.00 298.39 268.54 298.49   Q 271.93 299.05 272.75 303.49   Q 274.46 312.69 266.44 317.16   A 1.41 1.41 0.0 0 0 265.78 318.82   Q 269.16 329.20 277.69 336.05   A 0.83 0.82 53.9 0 1 277.47 337.47   Q 271.17 339.83 265.63 343.67   Q 265.17 343.99 264.90 343.50   C 264.09 342.00 262.98 340.72 262.75 339.02   Q 261.48 329.71 258.42 320.84   Q 258.24 320.31 257.70 320.48   L 254.88 321.36   A 0.96 0.95 -9.6 0 0 254.22 322.28   Z   M 263.32 306.75   C 263.90 302.46 258.28 300.67 255.12 301.02   Q 254.50 301.09 254.50 301.71   L 254.50 313.76   Q 254.50 314.35 255.06 314.16   C 258.65 312.93 262.75 311.02 263.32 306.75   Z"/>
<path fill="#ffffff" d="   M 347.94 336.56   Q 346.61 335.65 346.43 334.43   Q 346.37 333.95 346.01 333.62   C 334.51 322.91 336.73 291.48 357.73 294.56   C 359.65 294.84 361.65 296.40 364.16 296.27   Q 364.64 296.24 365.02 296.54   C 373.27 303.16 373.95 315.48 371.91 324.93   C 369.53 336.02 358.75 344.01 347.94 336.56   Z   M 355.83 332.36   C 364.72 331.55 362.55 309.30 361.34 303.97   Q 361.23 303.48 360.78 303.26   C 357.59 301.72 354.80 300.26 352.16 303.18   C 348.43 307.29 347.49 333.13 355.83 332.36   Z"/>
<path fill="#ffffff" d="   M 391.29 321.91   C 388.15 321.48 377.44 319.08 378.54 314.42   Q 378.65 313.92 378.34 313.52   C 373.97 308.02 376.32 299.07 381.60 295.87   C 386.29 293.03 392.83 294.22 397.94 295.96   A 1.36 1.32 -50.4 0 0 399.04 295.84   Q 401.82 294.19 403.86 296.79   Q 404.19 297.20 403.98 297.68   L 399.98 306.88   A 1.58 1.58 0.0 0 1 397.26 307.20   C 395.14 304.35 391.08 298.37 386.64 301.30   C 383.24 303.54 386.30 308.28 388.87 310.29   Q 389.26 310.59 389.74 310.66   Q 393.72 311.20 397.14 313.03   Q 402.03 315.64 402.91 316.33   Q 405.66 318.47 406.09 322.72   C 406.98 331.77 400.68 339.84 391.33 339.74   C 385.99 339.68 381.42 336.37 376.00 337.95   A 0.71 0.71 0.0 0 1 375.16 337.57   L 374.06 335.28   Q 373.82 334.77 374.04 334.25   L 378.72 323.25   A 0.73 0.73 0.0 0 1 379.97 323.09   Q 380.91 324.29 382.43 324.52   Q 382.91 324.59 383.06 325.06   C 384.82 330.61 388.99 335.41 395.08 331.88   C 401.23 328.32 395.10 322.43 391.29 321.91   Z"/>
<path fill="#ffffff" d="   M 316.92 318.23   L 322.48 300.29   Q 322.64 299.79 322.32 299.38   L 319.80 296.10   A 0.79 0.79 0.0 0 1 320.41 294.83   L 332.87 294.52   Q 333.40 294.51 333.75 294.91   L 336.13 297.64   A 0.66 0.66 0.0 0 1 336.06 298.57   L 333.67 300.65   A 1.31 1.29 -21.1 0 0 333.23 301.62   Q 333.30 315.06 333.21 328.45   C 333.18 332.32 335.16 334.81 337.63 337.37   A 0.96 0.96 0.0 0 1 336.95 339.00   L 322.96 339.00   Q 322.49 339.00 322.29 338.57   L 320.83 335.38   Q 320.62 334.92 320.99 334.59   L 323.88 332.03   A 0.66 0.63 70.4 0 0 324.10 331.54   L 324.13 317.50   A 0.15 0.15 0.0 0 0 323.83 317.46   L 317.32 337.73   A 2.43 2.43 0.0 0 1 312.68 337.69   L 307.08 319.04   Q 306.13 315.88 306.11 319.18   Q 306.09 323.67 306.49 329.68   C 306.69 332.76 308.79 335.06 310.31 337.57   A 0.94 0.94 0.0 0 1 309.51 339.00   L 280.20 339.00   A 0.73 0.72 -83.8 0 1 279.50 338.12   Q 279.78 336.84 278.76 336.16   Q 277.72 335.47 278.66 334.66   L 281.36 332.32   A 1.14 1.12 -20.9 0 0 281.75 331.47   L 281.75 300.27   Q 281.75 299.76 281.40 299.38   L 278.39 296.12   A 0.82 0.82 0.0 0 1 278.99 294.75   L 290.82 294.75   Q 291.35 294.75 291.74 295.11   L 293.70 296.90   A 0.67 0.66 43.5 0 1 293.73 297.84   L 291.32 300.41   Q 290.93 300.82 290.93 301.38   L 291.18 331.98   A 1.11 1.07 -65.7 0 0 291.43 332.68   L 294.56 336.54   Q 295.12 337.22 295.20 336.34   L 295.33 335.10   Q 295.38 334.59 295.84 334.36   C 298.54 333.00 299.81 330.94 299.95 327.77   Q 300.51 314.82 300.19 301.86   C 300.13 299.44 299.36 298.36 297.55 296.99   A 1.26 1.25 -26.2 0 1 298.32 294.74   Q 303.81 294.77 309.71 294.74   C 311.63 294.73 312.77 295.70 314.02 296.93   A 0.67 0.66 46.9 0 1 313.99 297.91   L 311.52 300.04   Q 311.05 300.43 311.22 301.02   L 316.18 318.22   Q 316.53 319.47 316.92 318.23   Z"/>
<path fill="#ffffff" d="   M 91.66 338.46   L 90.63 335.50   Q 90.46 335.01 90.84 334.66   L 93.67 332.00   A 1.02 1.01 69.1 0 0 94.00 331.25   L 94.00 300.73   Q 94.00 300.11 93.60 299.63   L 90.46 295.82   A 0.66 0.65 -19.6 0 1 90.97 294.75   L 103.36 294.75   Q 104.01 294.75 104.38 295.28   L 105.81 297.36   A 0.62 0.62 0.0 0 1 105.63 298.24   C 103.98 299.29 103.02 300.49 103.01 302.59   Q 102.98 317.19 103.01 331.79   A 0.60 0.60 0.0 0 0 103.52 332.38   C 110.34 333.50 111.90 329.27 113.51 323.85   A 0.46 0.46 0.0 0 1 114.32 323.71   Q 115.44 325.27 117.32 325.47   Q 117.74 325.51 117.93 325.89   L 122.40 334.61   A 3.01 3.01 0.0 0 1 119.72 339.00   L 92.41 339.00   A 0.81 0.79 80.1 0 1 91.66 338.46   Z"/>
<path fill="#ffffff" d="   M 220.75 320.99   L 220.75 331.81   A 1.56 1.55 -63.2 0 0 221.05 332.73   L 224.48 337.33   A 1.04 1.04 0.0 0 1 223.65 339.00   L 210.22 339.00   Q 209.47 339.00 209.49 338.25   Q 209.54 336.69 208.14 336.09   A 0.64 0.64 0.0 0 1 207.93 335.05   L 210.92 331.97   Q 211.25 331.64 211.25 331.18   L 211.25 320.91   Q 211.25 320.23 210.59 320.42   L 208.27 321.07   Q 207.74 321.22 207.40 320.79   L 205.70 318.59   Q 205.36 318.15 205.62 317.67   Q 207.31 314.50 210.80 313.95   Q 211.32 313.86 211.32 313.33   L 211.22 300.27   Q 211.21 299.62 210.80 299.12   L 208.64 296.55   A 1.09 1.08 -20.3 0 1 209.46 294.77   C 216.90 294.70 226.77 293.41 233.34 297.78   C 234.36 298.45 236.45 298.76 236.95 299.54   Q 241.08 305.84 238.57 312.83   C 236.04 319.89 228.44 320.86 221.34 320.43   Q 220.75 320.40 220.75 320.99   Z   M 220.74 302.44   L 220.76 313.06   A 0.25 0.25 0.0 0 0 221.01 313.31   L 222.30 313.30   A 7.20 5.16 -0.1 0 0 229.49 308.13   L 229.49 307.33   A 7.20 5.16 -0.1 0 0 222.28 302.18   L 220.99 302.19   A 0.25 0.25 0.0 0 0 220.74 302.44   Z"/>
<path fill="#000000" d="   M 255.12 301.02   C 258.28 300.67 263.90 302.46 263.32 306.75   C 262.75 311.02 258.65 312.93 255.06 314.16   Q 254.50 314.35 254.50 313.76   L 254.50 301.71   Q 254.50 301.09 255.12 301.02   Z"/>
<path fill="#000000" d="   M 139.08 332.39   C 129.67 333.04 129.09 291.70 144.17 303.60   A 1.36 1.34 13.8 0 1 144.64 304.36   C 145.79 309.49 147.79 331.80 139.08 332.39   Z"/>
<path fill="#000000" d="   M 355.83 332.36   C 347.49 333.13 348.43 307.29 352.16 303.18   C 354.80 300.26 357.59 301.72 360.78 303.26   Q 361.23 303.48 361.34 303.97   C 362.55 309.30 364.72 331.55 355.83 332.36   Z"/>
<path fill="#000000" d="   M 220.74 302.44   A 0.25 0.25 0.0 0 1 220.99 302.19   L 222.28 302.18   A 7.20 5.16 -0.1 0 1 229.49 307.33   L 229.49 308.13   A 7.20 5.16 -0.1 0 1 222.30 313.30   L 221.01 313.31   A 0.25 0.25 0.0 0 1 220.76 313.06   L 220.74 302.44   Z"/>
<path fill="#000000" d="   M 179.42 399.53   L 184.50 399.58   A 0.35 0.35 0.0 0 1 184.71 400.21   L 180.61 403.22   A 0.35 0.35 0.0 0 0 180.49 403.60   L 182.01 408.45   A 0.35 0.35 0.0 0 1 181.47 408.84   L 177.35 405.88   A 0.35 0.35 0.0 0 0 176.94 405.88   L 172.80 408.82   A 0.35 0.35 0.0 0 1 172.27 408.43   L 173.81 403.59   A 0.35 0.35 0.0 0 0 173.68 403.21   L 169.60 400.18   A 0.35 0.35 0.0 0 1 169.81 399.55   L 174.89 399.52   A 0.35 0.35 0.0 0 0 175.22 399.28   L 176.83 394.47   A 0.35 0.35 0.0 0 1 177.50 394.47   L 179.09 399.29   A 0.35 0.35 0.0 0 0 179.42 399.53   Z"/>
<path fill="#000000" d="   M 244.93 399.54   L 250.34 399.54   A 0.30 0.30 0.0 0 1 250.52 400.08   L 246.17 403.30   A 0.30 0.30 0.0 0 0 246.06 403.63   L 247.73 408.77   A 0.30 0.30 0.0 0 1 247.27 409.11   L 242.87 405.97   A 0.30 0.30 0.0 0 0 242.52 405.97   L 238.14 409.14   A 0.30 0.30 0.0 0 1 237.68 408.81   L 239.31 403.65   A 0.30 0.30 0.0 0 0 239.20 403.32   L 234.83 400.14   A 0.30 0.30 0.0 0 1 235.00 399.60   L 240.41 399.55   A 0.30 0.30 0.0 0 0 240.69 399.35   L 242.37 394.21   A 0.30 0.30 0.0 0 1 242.94 394.20   L 244.65 399.33   A 0.30 0.30 0.0 0 0 244.93 399.54   Z"/>
<path fill="#000000" d="   M 201.53 399.52   L 206.57 399.59   A 0.36 0.36 0.0 0 1 206.78 400.24   L 202.73 403.25   A 0.36 0.36 0.0 0 0 202.60 403.64   L 204.09 408.46   A 0.36 0.36 0.0 0 1 203.54 408.86   L 199.43 405.94   A 0.36 0.36 0.0 0 0 199.02 405.94   L 194.90 408.84   A 0.36 0.36 0.0 0 1 194.35 408.44   L 195.85 403.63   A 0.36 0.36 0.0 0 0 195.72 403.23   L 191.69 400.21   A 0.36 0.36 0.0 0 1 191.90 399.57   L 196.94 399.51   A 0.36 0.36 0.0 0 0 197.28 399.27   L 198.90 394.50   A 0.36 0.36 0.0 0 1 199.58 394.50   L 201.19 399.27   A 0.36 0.36 0.0 0 0 201.53 399.52   Z"/>
<path fill="#000000" d="   M 223.06 399.57   L 228.14 399.62   A 0.36 0.36 0.0 0 1 228.35 400.27   L 224.26 403.28   A 0.36 0.36 0.0 0 0 224.13 403.68   L 225.65 408.52   A 0.36 0.36 0.0 0 1 225.10 408.92   L 220.97 405.96   A 0.36 0.36 0.0 0 0 220.55 405.96   L 216.42 408.91   A 0.36 0.36 0.0 0 1 215.87 408.51   L 217.41 403.67   A 0.36 0.36 0.0 0 0 217.28 403.27   L 213.20 400.24   A 0.36 0.36 0.0 0 1 213.41 399.60   L 218.49 399.57   A 0.36 0.36 0.0 0 0 218.83 399.32   L 220.44 394.50   A 0.36 0.36 0.0 0 1 221.13 394.51   L 222.72 399.33   A 0.36 0.36 0.0 0 0 223.06 399.57   Z"/>
<path fill="#000000" d="   M 266.01 399.54   L 271.32 399.57   A 0.31 0.31 0.0 0 1 271.51 400.13   L 267.22 403.28   A 0.31 0.31 0.0 0 0 267.11 403.62   L 268.73 408.69   A 0.31 0.31 0.0 0 1 268.25 409.03   L 263.93 405.93   A 0.31 0.31 0.0 0 0 263.57 405.93   L 259.25 409.03   A 0.31 0.31 0.0 0 1 258.77 408.69   L 260.39 403.62   A 0.31 0.31 0.0 0 0 260.28 403.28   L 255.99 400.13   A 0.31 0.31 0.0 0 1 256.18 399.57   L 261.49 399.54   A 0.31 0.31 0.0 0 0 261.79 399.33   L 263.46 394.28   A 0.31 0.31 0.0 0 1 264.04 394.28   L 265.71 399.33   A 0.31 0.31 0.0 0 0 266.01 399.54   Z"/>
<path fill="#000000" d="   M 286.27 399.60   L 291.33 399.62   A 0.36 0.36 0.0 0 1 291.54 400.27   L 287.46 403.26   A 0.36 0.36 0.0 0 0 287.33 403.66   L 288.88 408.48   A 0.36 0.36 0.0 0 1 288.32 408.88   L 284.22 405.92   A 0.36 0.36 0.0 0 0 283.80 405.92   L 279.70 408.88   A 0.36 0.36 0.0 0 1 279.14 408.48   L 280.69 403.66   A 0.36 0.36 0.0 0 0 280.56 403.26   L 276.48 400.27   A 0.36 0.36 0.0 0 1 276.69 399.62   L 281.75 399.60   A 0.36 0.36 0.0 0 0 282.09 399.35   L 283.67 394.55   A 0.36 0.36 0.0 0 1 284.35 394.55   L 285.93 399.35   A 0.36 0.36 0.0 0 0 286.27 399.60   Z"/>
<path fill="#000000" d="   M 304.46 399.56   L 309.33 399.60   A 0.43 0.43 0.0 0 1 309.58 400.38   L 305.66 403.26   A 0.43 0.43 0.0 0 0 305.50 403.73   L 306.97 408.37   A 0.43 0.43 0.0 0 1 306.31 408.85   L 302.35 406.01   A 0.43 0.43 0.0 0 0 301.85 406.01   L 297.89 408.84   A 0.43 0.43 0.0 0 1 297.23 408.36   L 298.71 403.72   A 0.43 0.43 0.0 0 0 298.56 403.24   L 294.64 400.35   A 0.43 0.43 0.0 0 1 294.90 399.57   L 299.77 399.55   A 0.43 0.43 0.0 0 0 300.17 399.26   L 301.72 394.64   A 0.43 0.43 0.0 0 1 302.53 394.64   L 304.06 399.26   A 0.43 0.43 0.0 0 0 304.46 399.56   Z"/>
<path fill="#000000" d="   M 322.48 399.55   L 327.51 399.59   A 0.36 0.36 0.0 0 1 327.73 400.24   L 323.69 403.25   A 0.36 0.36 0.0 0 0 323.56 403.64   L 325.07 408.45   A 0.36 0.36 0.0 0 1 324.52 408.85   L 320.41 405.94   A 0.36 0.36 0.0 0 0 320.00 405.94   L 315.90 408.86   A 0.36 0.36 0.0 0 1 315.35 408.46   L 316.84 403.66   A 0.36 0.36 0.0 0 0 316.71 403.26   L 312.67 400.27   A 0.36 0.36 0.0 0 1 312.88 399.62   L 317.91 399.56   A 0.36 0.36 0.0 0 0 318.25 399.31   L 319.85 394.54   A 0.36 0.36 0.0 0 1 320.53 394.53   L 322.14 399.30   A 0.36 0.36 0.0 0 0 322.48 399.55   Z"/>
<path fill="#000000" d="   M 250.98 428.39   L 251.08 429.73   A 0.80 0.79 -86.0 0 0 251.69 430.44   Q 254.03 431.00 253.88 433.26   Q 253.84 433.90 253.21 434.01   C 248.43 434.89 251.58 441.79 255.33 442.02   C 257.54 442.15 259.94 440.85 259.41 438.20   A 1.39 1.38 57.7 0 0 256.94 437.64   L 256.02 438.89   A 0.99 0.99 0.0 0 1 254.27 438.58   C 252.95 434.12 256.19 431.62 259.78 430.49   A 1.05 1.05 0.0 0 0 260.40 429.03   L 259.51 427.27   A 0.75 0.74 51.9 0 1 259.60 426.46   C 264.32 420.82 270.85 429.46 264.28 433.74   A 1.23 1.22 -36.7 0 0 264.01 435.55   C 270.59 443.35 251.29 451.38 244.39 441.64   Q 241.06 436.95 245.19 433.08   Q 245.56 432.73 245.52 432.22   C 245.26 429.27 244.48 426.44 247.75 424.50   Q 252.20 421.85 256.25 425.02   A 1.66 1.66 0.0 0 1 256.34 427.56   Q 254.68 429.05 252.95 427.44   A 1.17 1.17 0.0 0 0 250.98 428.39   Z"/>
<path fill="#000000" d="   M 82.22 442.79   L 80.61 445.50   A 0.84 0.83 15.0 0 1 79.89 445.91   L 66.75 445.69   A 1.29 1.22 -1.4 0 1 65.49 444.56   Q 65.49 444.48 65.64 444.00   Q 65.72 443.76 65.92 443.51   C 68.39 440.48 67.63 432.91 67.17 429.23   A 1.05 0.99 -69.9 0 0 66.95 428.72   L 65.33 426.72   A 1.51 1.51 0.0 0 1 66.11 424.31   Q 70.29 423.17 74.57 424.18   A 1.61 1.60 26.2 0 1 75.45 426.76   C 73.05 429.68 73.99 436.25 74.01 439.95   A 2.14 2.14 0.0 0 0 76.56 442.04   Q 79.17 441.53 79.71 438.88   A 0.77 0.75 -84.1 0 1 80.43 438.28   Q 81.90 438.23 82.56 439.62   Q 82.94 440.44 83.57 439.80   L 86.30 437.08   A 1.16 1.14 24.4 0 1 87.23 436.74   Q 88.78 436.87 90.16 436.24   A 1.52 1.52 0.0 0 0 89.27 433.36   Q 87.71 433.63 87.03 435.78   A 0.67 0.65 -77.0 0 1 86.31 436.24   C 84.03 435.93 83.49 433.92 85.04 432.39   C 88.24 429.22 97.03 428.23 96.66 435.06   Q 96.44 439.18 98.02 443.02   A 0.91 0.91 0.0 0 1 97.91 443.90   Q 95.37 447.28 91.69 445.02   A 0.95 0.94 -44.5 0 0 90.72 445.02   Q 85.83 447.92 83.11 442.82   Q 82.69 442.01 82.22 442.79   Z   M 90.0619 442.1515   A 1.22 1.02 80.0 0 0 90.8545 440.7729   A 1.22 1.02 80.0 0 0 89.6381 439.7485   A 1.22 1.02 80.0 0 0 88.8455 441.1271   A 1.22 1.02 80.0 0 0 90.0619 442.1515   Z"/>
<path fill="#000000" d="   M 286.71 437.91   A 1.25 1.25 0.0 0 0 284.26 438.18   Q 284.15 441.03 285.59 443.31   A 1.69 1.68 66.6 0 1 284.59 445.84   Q 280.83 446.82 277.16 445.63   A 1.23 1.23 0.0 0 1 276.34 444.68   Q 276.07 443.05 277.21 441.72   A 1.26 1.24 65.1 0 0 277.51 440.88   C 277.42 436.23 278.79 430.39 276.21 426.35   A 1.47 1.47 0.0 0 1 277.41 424.09   C 280.99 423.98 289.29 423.00 292.09 425.15   C 295.10 427.45 294.32 431.44 292.20 434.22   A 0.66 0.65 42.4 0 0 292.24 435.05   C 294.56 437.57 294.44 440.75 296.36 442.70   A 1.97 1.97 0.0 0 1 295.73 445.90   Q 292.09 447.47 288.91 444.94   A 1.60 1.55 12.8 0 1 288.37 444.11   L 286.71 437.91   Z   M 285.5159 433.1699   A 2.76 1.39 90.5 0 0 286.9299 430.4221   A 2.76 1.39 90.5 0 0 285.5641 427.6501   A 2.76 1.39 90.5 0 0 284.1501 430.3979   A 2.76 1.39 90.5 0 0 285.5159 433.1699   Z"/>
<path fill="#000000" d="   M 143.65 431.67   Q 146.69 428.54 149.68 430.85   C 153.16 433.55 150.99 439.84 152.43 443.71   Q 153.11 445.51 151.24 445.99   Q 148.04 446.81 145.03 445.52   A 0.82 0.80 19.2 0 1 144.56 444.58   C 145.11 442.39 146.33 436.53 144.25 434.98   A 1.20 1.20 0.0 0 0 142.34 435.81   Q 141.89 439.85 142.93 443.77   A 1.80 1.80 0.0 0 1 141.50 446.01   Q 138.35 446.56 135.35 445.64   A 1.01 1.01 0.0 0 1 134.69 444.32   C 136.04 440.59 137.77 431.26 134.70 427.88   A 1.36 1.35 60.4 0 1 135.30 425.67   L 140.82 423.98   A 1.35 1.35 0.0 0 1 142.56 425.36   L 142.19 431.03   A 0.85 0.85 0.0 0 0 143.65 431.67   Z"/>
<path fill="#000000" d="   M 206.51 433.04   A 1.16 1.16 0.0 0 1 206.21 431.21   Q 209.37 427.91 213.48 425.84   A 0.81 0.80 59.2 0 1 214.50 426.10   Q 215.27 427.17 214.96 428.53   A 0.96 0.95 24.1 0 0 215.34 429.52   Q 216.51 430.38 218.11 429.91   A 0.62 0.62 0.0 0 1 218.90 430.51   L 218.86 432.70   A 0.85 0.84 -5.6 0 1 218.19 433.51   L 215.59 434.05   A 0.75 0.75 0.0 0 0 215.00 434.78   L 215.00 439.28   A 1.77 1.76 85.8 0 0 217.02 441.03   Q 218.11 440.86 218.84 441.72   A 0.68 0.66 -53.9 0 1 218.94 442.44   Q 216.52 447.78 211.22 445.83   C 205.73 443.81 211.14 435.47 206.51 433.04   Z"/>
<path fill="#000000" d="   M 326.51 432.43   A 0.19 0.19 0.0 0 1 326.48 432.16   Q 329.36 428.56 333.75 426.14   A 1.29 1.28 -18.7 0 1 335.64 427.07   L 336.00 429.40   Q 336.09 430.00 336.70 430.00   L 338.36 430.00   A 1.79 1.79 0.0 0 1 339.33 433.30   Q 338.21 434.03 336.72 433.70   A 0.71 0.70 10.6 0 0 335.88 434.27   C 335.56 436.21 334.78 442.44 338.80 440.89   A 1.28 1.28 0.0 0 1 340.25 442.90   Q 337.26 446.51 333.24 446.00   C 328.24 445.37 329.20 438.37 329.26 435.09   Q 329.27 434.59 328.88 434.28   L 326.51 432.43   Z"/>
<path fill="#000000" d="   M 429.93 433.86   L 428.47 432.91   A 1.31 1.31 0.0 0 1 428.43 430.73   L 435.17 426.00   A 1.36 1.36 0.0 0 1 437.28 427.41   Q 436.98 428.81 437.88 429.77   A 0.92 0.91 62.8 0 0 438.73 430.05   Q 441.65 429.45 441.46 432.56   Q 441.42 433.25 440.75 433.42   L 437.82 434.17   A 0.75 0.74 82.8 0 0 437.25 434.91   L 437.26 439.90   A 1.19 1.18 -6.4 0 0 438.71 441.05   Q 440.13 440.73 441.29 441.41   Q 441.77 441.69 441.55 442.20   C 439.76 446.32 433.54 447.92 431.29 443.68   C 430.04 441.30 430.67 437.69 430.43 434.70   A 1.11 1.09 14.7 0 0 429.93 433.86   Z"/>
<path fill="#000000" d="   M 100.83 445.45   Q 99.68 444.85 100.14 443.65   Q 102.14 438.40 100.17 433.26   Q 99.88 432.50 100.50 431.97   Q 104.06 428.94 108.07 431.14   Q 108.59 431.42 109.08 431.10   C 116.21 426.35 116.81 435.32 116.78 439.41   C 116.76 441.27 117.62 442.94 117.66 444.89   Q 117.67 445.50 117.09 445.69   Q 113.71 446.83 110.37 445.72   A 1.12 1.12 0.0 0 1 109.67 444.28   Q 111.06 440.38 110.05 435.84   Q 109.75 434.48 108.26 434.85   A 1.17 1.17 0.0 0 0 107.37 436.06   L 107.93 444.72   A 0.67 0.65 -17.3 0 1 107.59 445.34   Q 104.30 447.25 100.83 445.45   Z"/>
<path fill="#000000" d="   M 132.37 443.16   C 125.07 451.09 115.65 441.29 120.61 433.58   C 126.42 424.55 138.50 434.35 130.85 437.92   Q 130.40 438.14 129.96 437.88   Q 128.33 436.94 127.95 435.04   A 1.04 1.03 59.0 0 0 126.13 434.58   C 124.26 436.91 126.18 441.95 129.98 440.64   Q 131.05 440.27 131.73 440.52   A 1.64 1.63 31.5 0 1 132.37 443.16   Z"/>
<path fill="#000000" d="   M 156.4238 444.1473   A 8.31 7.88 132.8 0 1 156.2882 432.6960   A 8.31 7.88 132.8 0 1 167.7162 431.9527   A 8.31 7.88 132.8 0 1 167.8518 443.4040   A 8.31 7.88 132.8 0 1 156.4238 444.1473   Z   M 162.9913 442.3133   A 4.32 1.45 78.5 0 0 163.5509 437.7909   A 4.32 1.45 78.5 0 0 161.2687 433.8467   A 4.32 1.45 78.5 0 0 160.7091 438.3691   A 4.32 1.45 78.5 0 0 162.9913 442.3133   Z"/>
<path fill="#000000" d="   M 172.73 445.52   A 1.31 1.31 0.0 0 1 172.09 443.84   Q 174.31 438.46 171.84 433.24   A 0.94 0.94 0.0 0 1 172.18 432.05   C 174.40 430.60 177.38 429.06 179.79 431.14   A 0.84 0.83 51.5 0 0 180.72 431.25   C 191.93 425.55 186.88 439.71 189.64 443.30   A 1.53 1.53 0.0 0 1 188.95 445.67   Q 185.89 446.79 182.75 445.95   A 1.41 1.41 0.0 0 1 181.76 444.20   Q 182.94 440.06 182.18 435.83   A 1.27 1.26 -9.7 0 0 180.73 434.81   Q 179.50 435.02 179.50 436.40   C 179.51 439.23 179.40 441.48 180.17 444.26   A 0.80 0.78 -24.4 0 1 179.83 445.13   Q 176.43 447.33 172.73 445.52   Z"/>
<path fill="#000000" d="   M 197.84 440.26   C 198.97 442.33 201.26 441.68 203.15 440.50   Q 203.58 440.24 203.97 440.56   C 206.43 442.58 202.77 445.29 200.88 445.84   C 193.99 447.89 189.63 441.10 191.66 435.12   C 194.18 427.67 204.86 428.14 205.54 436.84   A 1.77 1.77 0.0 0 1 203.78 438.75   L 198.74 438.75   A 1.02 1.02 0.0 0 0 197.84 440.26   Z   M 199.83 434.62   A 1.30 1.30 0.0 0 0 198.53 433.32   A 1.30 1.30 0.0 0 0 197.23 434.62   A 1.30 1.30 0.0 0 0 198.53 435.92   A 1.30 1.30 0.0 0 0 199.83 434.62   Z"/>
<path fill="#000000" d="   M 226.29 439.88   C 227.10 442.22 229.95 441.81 231.62 440.69   A 1.21 1.21 0.0 0 1 233.51 441.63   C 233.85 447.48 221.30 448.24 220.04 439.76   C 218.58 429.93 231.54 425.60 234.12 435.16   C 235.54 440.37 229.16 438.41 226.69 439.10   Q 226.08 439.28 226.29 439.88   Z   M 227.5228 435.9233   A 1.36 1.10 81.0 0 0 228.3965 434.4079   A 1.36 1.10 81.0 0 0 227.0972 433.2367   A 1.36 1.10 81.0 0 0 226.2235 434.7521   A 1.36 1.10 81.0 0 0 227.5228 435.9233   Z"/>
<path fill="#000000" d="   M 304.90 440.68   Q 307.20 442.41 309.72 440.57   A 0.88 0.88 0.0 0 1 311.01 440.85   C 314.43 446.99 295.11 449.97 298.16 435.94   C 301.07 422.55 318.38 434.90 310.09 438.95   A 1.27 1.25 38.6 0 1 309.21 439.04   Q 307.24 438.52 305.26 438.98   A 0.96 0.96 0.0 0 0 304.90 440.68   Z   M 306.64 434.65   A 1.32 1.32 0.0 0 0 305.32 433.33   A 1.32 1.32 0.0 0 0 304.00 434.65   A 1.32 1.32 0.0 0 0 305.32 435.97   A 1.32 1.32 0.0 0 0 306.64 434.65   Z"/>
<path fill="#000000" d="   M 320.16 434.64   Q 321.18 435.87 322.74 436.21   Q 323.20 436.30 323.54 436.64   C 326.62 439.74 326.76 444.36 322.16 445.92   C 320.17 446.60 318.09 445.82 315.86 445.71   Q 315.38 445.69 315.05 445.35   Q 312.11 442.33 315.00 439.55   Q 315.39 439.17 315.13 438.70   Q 312.34 433.83 316.48 430.34   A 1.45 1.42 24.5 0 1 317.41 430.00   L 323.24 430.00   A 0.93 0.90 60.8 0 1 323.74 430.15   Q 326.79 432.13 325.07 435.32   A 0.79 0.79 0.0 0 1 323.77 435.46   Q 322.54 434.02 320.74 433.66   A 0.60 0.60 0.0 0 0 320.16 434.64   Z   M 318.8539 442.4569   A 1.63 1.04 38.6 0 0 318.2288 440.6272   A 1.63 1.04 38.6 0 0 316.3061 440.4231   A 1.63 1.04 38.6 0 0 316.9312 442.2528   A 1.63 1.04 38.6 0 0 318.8539 442.4569   Z"/>
<path fill="#000000" d="   M 348.37 433.63   A 1.35 1.35 0.0 0 0 346.09 434.21   Q 345.47 436.57 343.26 436.04   A 2.00 2.00 0.0 0 1 342.37 432.64   Q 346.72 428.56 352.46 430.56   C 355.60 431.65 355.07 437.28 355.01 439.93   A 1.15 1.11 -65.6 0 0 355.30 440.74   C 358.40 444.26 353.41 447.69 349.99 445.09   A 1.21 1.21 0.0 0 0 348.57 445.06   C 341.06 450.25 337.17 436.95 347.48 436.62   Q 348.03 436.61 348.43 436.22   Q 349.69 435.02 348.37 433.63   Z   M 348.5854 442.3507   A 1.44 1.10 68.6 0 0 349.0842 440.6086   A 1.44 1.10 68.6 0 0 347.5346 439.6693   A 1.44 1.10 68.6 0 0 347.0358 441.4114   A 1.44 1.10 68.6 0 0 348.5854 442.3507   Z"/>
<path fill="#000000" d="   M 366.76 431.83   Q 369.82 429.36 373.82 430.10   Q 375.00 430.32 375.00 431.52   L 375.00 440.80   A 0.94 0.93 32.4 0 0 375.09 441.20   L 376.31 443.61   A 0.91 0.90 -21.6 0 1 375.76 444.88   L 370.55 446.43   A 0.80 0.79 -28.3 0 1 369.73 446.19   Q 367.83 443.97 365.75 445.96   A 1.24 1.20 21.0 0 1 364.95 446.30   C 356.27 446.63 361.60 436.22 358.06 433.19   A 1.46 1.46 0.0 0 1 358.51 430.70   Q 361.60 429.59 364.86 430.14   Q 365.42 430.24 365.63 430.77   L 365.96 431.61   Q 366.21 432.27 366.76 431.83   Z   M 367.2913 442.3445   A 4.91 1.42 87.3 0 0 368.4784 437.3731   A 4.91 1.42 87.3 0 0 366.8287 432.5355   A 4.91 1.42 87.3 0 0 365.6416 437.5069   A 4.91 1.42 87.3 0 0 367.2913 442.3445   Z"/>
<path fill="#000000" d="   M 378.44 445.59   A 1.59 1.58 25.7 0 1 377.61 443.23   Q 380.67 438.41 377.68 433.51   A 1.48 1.47 59.0 0 1 378.18 431.47   C 380.83 429.90 382.20 429.73 385.11 430.56   C 387.31 431.19 390.32 428.44 391.47 431.67   Q 392.84 435.51 389.71 437.25   A 1.15 1.14 -47.5 0 1 388.69 437.30   L 386.78 436.44   A 1.23 1.23 0.0 0 0 385.06 437.46   Q 384.79 440.80 387.02 443.15   A 1.49 1.49 0.0 0 1 386.40 445.59   Q 382.41 446.92 378.44 445.59   Z"/>
<path fill="#000000" d="   M 398.36 433.63   L 396.72 435.74   A 1.63 1.63 0.0 0 1 393.85 435.09   C 392.87 430.74 398.68 429.83 401.74 430.03   C 407.19 430.39 406.65 435.76 406.76 440.29   A 1.51 1.45 -65.2 0 0 407.06 441.16   C 409.71 444.82 404.41 447.45 401.34 445.19   Q 400.91 444.88 400.43 445.09   L 397.58 446.33   A 0.93 0.91 -48.4 0 1 396.99 446.37   Q 391.62 445.02 393.06 439.81   A 0.85 0.82 -15.0 0 1 393.27 439.46   L 395.43 437.41   A 0.79 0.78 -71.8 0 1 395.86 437.19   L 399.26 436.60   Q 399.83 436.50 400.10 435.99   Q 400.71 434.80 400.10 433.75   A 1.06 1.05 48.7 0 0 398.36 433.63   Z   M 399.4536 442.4506   A 1.47 0.87 96.5 0 0 400.4844 441.0885   A 1.47 0.87 96.5 0 0 399.7864 439.5294   A 1.47 0.87 96.5 0 0 398.7556 440.8915   A 1.47 0.87 96.5 0 0 399.4536 442.4506   Z"/>
<path fill="#000000" d="   M 417.45 435.65   Q 416.50 440.09 418.14 444.15   Q 418.33 444.61 417.92 444.91   Q 414.52 447.32 410.90 445.81   Q 409.17 445.10 409.79 443.52   C 411.24 439.79 411.10 436.42 409.49 432.77   A 0.73 0.73 0.0 0 1 409.90 431.79   L 415.22 429.82   A 1.04 1.03 -27.8 0 1 416.43 430.19   Q 417.72 432.01 419.26 430.64   Q 419.65 430.29 420.16 430.17   C 427.72 428.32 426.67 440.11 427.26 444.61   A 0.93 0.93 0.0 0 1 426.74 445.56   Q 423.03 447.29 419.51 445.28   Q 418.97 444.97 419.17 444.39   Q 420.63 440.21 419.83 435.70   A 1.21 1.21 0.0 0 0 417.45 435.65   Z"/>
<path fill="#000000" d="   M 448.93 440.29   C 449.92 442.71 452.47 440.99 454.06 440.62   A 1.52 1.52 0.0 0 1 455.62 443.01   C 451.00 449.21 442.22 445.70 442.15 438.07   C 442.05 428.71 455.67 426.43 456.51 436.50   C 456.77 439.54 452.22 438.87 450.40 438.51   A 1.31 1.31 0.0 0 0 448.93 440.29   Z   M 451.08 434.54   A 1.36 1.36 0.0 0 0 449.72 433.18   A 1.36 1.36 0.0 0 0 448.36 434.54   A 1.36 1.36 0.0 0 0 449.72 435.90   A 1.36 1.36 0.0 0 0 451.08 434.54   Z"/>
<path fill="#000000" d="   M 335.15 467.93   C 346.37 460.66 350.30 480.01 340.22 481.62   C 338.39 481.91 336.63 480.87 334.86 480.27   A 0.57 0.57 0.0 0 0 334.21 480.47   L 333.55 481.35   A 0.45 0.44 63.4 0 1 332.75 481.08   L 332.80 460.30   A 0.56 0.56 0.0 0 1 333.37 459.74   Q 333.65 459.75 333.82 459.88   Q 333.96 460.00 333.97 460.29   Q 334.03 463.80 333.99 467.29   A 0.75 0.75 0.0 0 0 335.15 467.93   Z   M 339.3688 480.6795   A 6.65 5.44 90.7 0 0 344.8896 474.0965   A 6.65 5.44 90.7 0 0 339.5312 467.3805   A 6.65 5.44 90.7 0 0 334.0104 473.9635   A 6.65 5.44 90.7 0 0 339.3688 480.6795   Z"/>
<ellipse fill="#000000" cx="0.00" cy="0.00" transform="translate(308.44,461.43) rotate(86.0)" rx="0.95" ry="0.75"/>
<path fill="#000000" d="   M 114.09 461.28   C 119.39 459.87 127.23 460.85 127.26 467.77   C 127.28 474.93 121.61 475.06 116.24 475.03   A 1.49 1.48 -89.8 0 0 114.75 476.52   L 114.75 481.24   A 0.58 0.58 0.0 0 1 113.59 481.25   Q 113.35 471.56 113.62 461.88   Q 113.63 461.41 114.09 461.28   Z   M 114.79 463.60   L 114.83 472.24   A 1.55 1.55 0.0 0 0 116.38 473.78   L 120.20 473.77   A 5.83 5.19 -0.2 0 0 126.01 468.56   L 126.01 467.20   A 5.83 5.19 -0.2 0 0 120.16 462.03   L 116.34 462.04   A 1.55 1.55 0.0 0 0 114.79 463.60   Z"/>
<rect fill="#000000" x="-0.59" y="-7.36" transform="translate(394.87,468.50) rotate(0.3)" width="1.18" height="14.72" rx="0.58"/>
<path fill="#000000" d="   M 133.54 467.17   Q 135.60 466.86 136.57 466.31   Q 137.03 466.05 137.35 466.49   A 0.48 0.47 -22.7 0 1 137.04 467.23   C 131.08 468.26 132.72 476.93 132.41 481.40   A 0.38 0.37 30.2 0 1 131.72 481.58   C 131.52 481.29 131.31 480.75 131.33 480.36   Q 131.72 474.01 131.38 467.64   Q 131.35 467.11 131.86 466.99   Q 132.22 466.90 132.62 467.06   Q 133.06 467.24 133.54 467.17   Z"/>
<path fill="#000000" d="   M 149.47 472.75   C 152.46 469.81 146.54 465.47 142.01 469.22   A 0.45 0.44 -30.4 0 1 141.31 469.04   Q 141.02 468.29 141.62 467.84   C 145.90 464.60 152.17 466.18 151.52 472.51   Q 151.20 475.61 151.67 479.90   A 1.15 1.15 0.0 0 1 149.95 481.02   Q 149.74 480.90 148.99 480.93   Q 148.58 480.94 148.10 481.16   C 144.79 482.62 140.87 481.31 140.67 477.38   C 140.34 470.96 147.52 474.67 149.47 472.75   Z   M 148.11 474.21   L 142.80 474.92   A 1.44 1.44 0.0 0 0 141.56 476.54   L 141.67 477.34   A 4.19 3.95 82.4 0 0 146.14 480.97   L 146.47 480.93   A 4.19 3.95 82.4 0 0 149.84 476.25   L 149.73 475.45   A 1.44 1.44 0.0 0 0 148.11 474.21   Z"/>
<path fill="#000000" d="   M 162.23 467.64   L 156.10 467.50   Q 155.37 467.48 155.59 466.78   Q 155.65 466.59 155.85 466.44   Q 156.03 466.29 156.32 466.28   Q 160.90 466.20 165.25 466.27   A 0.72 0.71 17.2 0 1 165.84 467.38   L 157.83 479.37   A 0.88 0.88 0.0 0 0 158.66 480.74   C 160.23 480.57 164.16 480.33 165.61 481.20   A 0.30 0.30 0.0 0 1 165.45 481.75   L 156.04 481.75   A 0.67 0.67 0.0 0 1 155.48 480.70   L 163.11 469.35   Q 164.23 467.69 162.23 467.64   Z"/>
<path fill="#000000" d="   M 169.78 478.09   C 163.91 468.53 179.04 460.00 181.57 472.61   Q 181.98 474.65 179.90 474.62   L 172.23 474.52   A 1.93 1.92 72.1 0 0 170.66 477.59   Q 174.61 482.95 179.83 478.77   A 0.43 0.42 55.9 0 1 180.47 478.90   Q 180.65 479.23 180.46 479.44   C 176.91 483.22 172.28 482.16 169.78 478.09   Z   M 170.84 472.94   L 179.44 473.20   A 0.51 0.51 0.0 0 0 179.96 472.70   L 179.97 472.52   A 4.81 4.77 -88.3 0 0 175.34 467.57   L 175.26 467.57   A 4.81 4.77 -88.3 0 0 170.35 472.24   L 170.35 472.42   A 0.51 0.51 0.0 0 0 170.84 472.94   Z"/>
<path fill="#000000" d="   M 188.13 467.35   L 191.27 466.29   A 0.54 0.53 -20.4 0 1 191.94 466.59   Q 192.23 467.25 191.47 467.41   C 184.40 468.91 189.07 478.60 186.75 481.59   A 0.56 0.56 0.0 0 1 185.75 481.24   L 185.98 467.26   Q 185.99 466.51 186.67 466.83   L 187.69 467.32   A 0.63 0.59 47.0 0 0 188.13 467.35   Z"/>
<path fill="#000000" d="   M 213.76 479.74   C 206.85 486.23 199.43 476.51 203.43 469.44   C 206.94 463.23 214.63 466.99 215.00 473.11   A 1.39 1.38 88.2 0 1 213.62 474.58   L 204.89 474.58   A 1.24 1.24 0.0 0 0 203.70 476.16   Q 204.80 480.05 208.78 480.74   Q 209.31 480.83 209.79 480.60   L 213.21 478.94   A 0.49 0.49 0.0 0 1 213.76 479.74   Z   M 204.58 473.24   L 212.72 473.22   A 0.76 0.76 0.0 0 0 213.48 472.45   L 213.48 472.33   A 4.82 4.76 89.8 0 0 208.70 467.53   L 208.56 467.53   A 4.82 4.76 89.8 0 0 203.82 472.37   L 203.82 472.49   A 0.76 0.76 0.0 0 0 204.58 473.24   Z"/>
<path fill="#000000" d="   M 225.57 467.76   C 219.11 468.00 220.76 476.67 220.74 481.00   Q 220.74 481.68 220.06 481.76   A 0.49 0.48 -2.7 0 1 219.52 481.28   L 219.45 467.44   Q 219.45 467.02 219.87 467.06   C 223.85 467.49 226.71 464.54 230.05 468.46   A 1.09 1.09 0.0 0 0 231.64 468.53   Q 235.14 465.07 238.72 466.95   C 243.01 469.21 241.51 477.24 241.47 480.97   Q 241.47 481.41 241.03 481.46   Q 240.49 481.53 240.47 481.00   C 240.33 477.27 241.06 471.10 238.57 468.19   A 1.31 1.28 -16.7 0 0 237.69 467.73   C 229.22 467.00 231.08 476.03 230.98 481.34   A 0.42 0.42 0.0 0 1 230.50 481.75   Q 230.15 481.69 230.13 481.43   C 229.81 477.70 231.38 467.55 225.57 467.76   Z"/>
<path fill="#000000" d="   M 260.54 480.10   A 2.37 2.36 64.0 0 0 261.71 476.68   C 260.57 474.76 258.37 475.10 256.88 474.49   C 247.59 470.71 257.11 462.59 262.22 467.86   A 0.42 0.41 -9.1 0 1 261.74 468.52   C 255.47 465.47 251.66 471.45 256.07 472.71   C 258.34 473.36 261.45 473.82 262.62 475.98   C 263.94 478.44 262.42 480.89 259.87 481.59   Q 256.48 482.51 253.35 480.44   Q 253.00 480.20 253.00 479.78   L 253.00 479.52   A 0.41 0.40 -72.2 0 1 253.64 479.19   Q 256.90 481.52 260.54 480.10   Z"/>
<path fill="#000000" d="   M 271.07 481.60   C 263.39 479.42 264.02 465.74 272.37 466.25   Q 277.19 466.55 278.37 472.18   Q 278.88 474.66 276.35 474.64   L 268.60 474.57   A 1.52 1.52 0.0 0 0 267.06 476.11   C 267.12 480.08 272.95 481.68 275.92 479.34   Q 276.39 478.97 276.71 478.95   Q 276.97 478.93 277.18 479.02   Q 277.70 479.24 277.30 479.63   Q 274.43 482.56 271.07 481.60   Z   M 267.73 473.02   L 276.53 473.02   A 0.46 0.46 0.0 0 0 276.99 472.56   L 276.99 472.41   A 4.83 4.76 90.0 0 0 272.23 467.58   L 272.03 467.58   A 4.83 4.76 -90.0 0 0 267.27 472.41   L 267.27 472.56   A 0.46 0.46 0.0 0 0 267.73 473.02   Z"/>
<path fill="#000000" d="   M 351.98 474.33   A 1.47 1.47 0.0 0 0 350.55 476.27   C 352.31 481.44 356.15 481.58 360.22 478.88   Q 361.00 478.36 360.77 479.27   C 359.29 485.06 346.63 480.78 349.53 471.28   C 352.07 462.92 363.25 465.89 361.40 474.08   Q 361.29 474.57 360.78 474.56   L 351.98 474.33   Z   M 351.61 473.27   L 359.53 472.99   A 0.79 0.79 0.0 0 0 360.29 472.17   L 360.28 472.03   A 4.69 4.64 88.0 0 0 355.48 467.51   L 355.26 467.52   A 4.69 4.64 88.0 0 0 350.79 472.36   L 350.79 472.50   A 0.79 0.79 0.0 0 0 351.61 473.27   Z"/>
<path fill="#000000" d="   M 284.28 467.15   A 0.66 0.65 -29.4 0 0 284.90 467.32   L 288.40 466.35   A 0.41 0.41 0.0 0 1 288.64 467.13   C 282.43 469.25 284.40 476.20 283.99 481.31   A 0.44 0.44 0.0 0 1 283.31 481.65   Q 283.10 481.52 282.91 481.19   Q 282.78 480.96 282.79 480.64   Q 282.95 473.76 283.01 466.87   A 0.41 0.41 0.0 0 1 283.71 466.58   L 284.28 467.15   Z"/>
<path fill="#000000" d="   M 297.24 477.98   Q 297.99 479.79 298.71 477.97   L 302.99 467.24   A 0.49 0.48 -5.6 0 1 303.21 466.98   Q 304.48 466.27 304.17 467.22   Q 301.73 474.68 298.41 481.47   A 0.55 0.55 0.0 0 1 297.41 481.46   Q 294.33 474.81 291.83 467.64   Q 291.66 467.17 291.78 466.90   Q 291.86 466.73 292.00 466.62   Q 292.37 466.31 292.56 466.75   L 297.24 477.98   Z"/>
<path fill="#000000" d="   M 317.06 467.45   L 320.34 466.34   A 0.32 0.32 0.0 0 1 320.76 466.67   Q 320.75 466.85 320.75 467.01   Q 320.75 467.30 320.48 467.39   C 314.80 469.24 316.24 476.58 315.93 481.20   Q 315.90 481.75 315.42 481.47   L 315.18 481.33   A 0.39 0.37 -75.0 0 1 315.00 481.00   L 315.00 466.96   A 0.43 0.43 0.0 0 1 315.74 466.65   L 316.38 467.29   A 0.67 0.66 -31.7 0 0 317.06 467.45   Z"/>
<path fill="#000000" d="   M 375.73 468.97   C 373.48 466.30 369.62 468.06 367.86 470.39   A 0.84 0.79 66.2 0 0 367.70 470.85   L 367.42 481.40   A 0.26 0.25 83.6 0 1 367.24 481.63   L 366.84 481.76   Q 366.26 481.94 366.27 481.34   L 366.40 466.81   Q 366.41 465.46 367.22 466.54   L 367.94 467.50   A 0.59 0.58 55.3 0 0 368.73 467.65   C 372.31 465.37 374.07 466.52 377.22 468.63   Q 377.64 468.92 378.07 468.65   C 389.77 461.31 388.44 474.29 388.17 481.20   Q 388.15 481.74 387.65 481.53   Q 387.36 481.40 387.32 480.99   Q 386.81 476.13 387.05 471.24   C 387.28 466.70 380.16 466.65 378.56 470.63   C 377.52 473.20 378.11 478.03 377.82 481.39   A 0.50 0.50 0.0 0 1 376.82 481.41   C 376.40 478.31 377.44 471.01 375.73 468.97   Z"/>
<rect fill="#000000" x="-0.52" y="-7.39" transform="translate(308.48,474.21) rotate(0.3)" width="1.04" height="14.78" rx="0.49"/>
<ellipse fill="#000000" cx="0.00" cy="0.00" transform="translate(394.86,480.69) rotate(97.2)" rx="0.80" ry="0.63"/>
</svg>